<?xml version="1.0" encoding="UTF-8" standalone="no"?><!DOCTYPE svg PUBLIC "-//W3C//DTD SVG 1.1//EN" "http://www.w3.org/Graphics/SVG/1.1/DTD/svg11.dtd"><svg width="100%" height="100%" viewBox="0 0 384 385" version="1.1" xmlns="http://www.w3.org/2000/svg" xmlns:xlink="http://www.w3.org/1999/xlink" xml:space="preserve" xmlns:serif="http://www.serif.com/" style="fill-rule:evenodd;clip-rule:evenodd;stroke-linejoin:round;stroke-miterlimit:1.41421;"><g id="_207732360"><path id="_208657600" d="M287.983,0.082l-49.796,-0.079c-55.943,0 -92.097,37.091 -92.097,94.502l0,43.571l-50.067,0c-4.326,0 -7.83,3.508 -7.83,7.834l0,63.13c0,4.327 3.508,7.83 7.83,7.83l50.067,0l0,159.299c0,4.326 3.504,7.829 7.83,7.829l65.324,0c4.326,0 7.83,-3.507 7.83,-7.829l0,-159.299l58.54,0c4.327,0 7.83,-3.503 7.83,-7.83l0.024,-63.13c0,-2.077 -0.827,-4.067 -2.293,-5.537c-1.466,-1.47 -3.464,-2.297 -5.541,-2.297l-58.56,0l0,-36.936c0,-17.753 4.23,-26.765 27.356,-26.765l33.545,-0.012c4.323,0 7.826,-3.508 7.826,-7.83l0,-58.621c0,-4.318 -3.499,-7.822 -7.818,-7.83Z" style="fill:#5b1e01;"/></g></svg>